<?xml version="1.0" encoding="UTF-8"?>
<svg id="Layer_1" data-name="Layer 1" xmlns="http://www.w3.org/2000/svg" viewBox="0 0 14.93 16.53">
  <defs>
    <style>
      .cls-1 {
        fill: #86888a;
      }
    </style>
  </defs>
  <path class="cls-1" d="m7.95,9.84c0,.26,0,.52,0,.77,0,.46,0,.92,0,1.38,0-.46,0-.92,0-1.38,0-.26,0-.52,0-.77Z"/>
  <path class="cls-1" d="m12.63,15.03c.09-.4.09-.83.12-1.25.06-.86.12-1.72.17-2.58.06-.9.12-1.8.18-2.7.03-.43.06-.86.09-1.3.07,0,.12,0,.17,0,.35,0,.7,0,1.05,0,.17,0,.3-.06.4-.2.11-.16.13-.33.04-.5-.09-.17-.23-.27-.43-.27-.39,0-.77,0-1.17,0,.03-.4.05-.77.07-1.15H1.58c.02.39.05.77.07,1.15-.36,0-.69,0-1.03,0-.09,0-.19,0-.27.02-.24.06-.38.28-.35.53.03.24.23.42.48.42.41,0,.82,0,1.24,0,.04.6.08,1.18.12,1.76.06.87.11,1.74.17,2.61.07,1.03.15,2.06.21,3.09.04.64.31,1.14.83,1.52.26.19.55.27.85.35h7.11s.05-.02.07-.03c.82-.17,1.36-.66,1.55-1.48Zm-7.55-1.16c-.31.16-.67-.06-.69-.43-.04-.73-.07-1.46-.1-2.19,0-.22-.02-.44-.03-.66,0,0,0,0,0,0-.04-.91-.08-1.81-.13-2.72-.01-.23.05-.42.25-.53.32-.18.69.04.71.42.03.7.06,1.4.1,2.09.05,1.15.1,2.31.16,3.46.01.24-.05.44-.27.55Zm2.86-.5c0,.22-.07.39-.27.49-.31.16-.66-.05-.7-.4,0-.04,0-.08,0-.11,0-1.84,0-3.68,0-5.52,0-.24.08-.42.3-.52.33-.14.67.1.67.48,0,.68,0,1.37,0,2.05,0,.26,0,.52,0,.77,0,.46,0,.92,0,1.38,0,.46,0,.92,0,1.38Zm2.84-5.5c-.04.81-.08,1.62-.12,2.43,0,.1,0,.19,0,.29h-.01c-.04.94-.08,1.89-.13,2.83-.01.29-.24.51-.51.5-.27-.01-.47-.25-.46-.54.06-1.28.12-2.56.18-3.83.03-.59.05-1.18.08-1.77.02-.39.39-.62.71-.44.21.12.27.31.25.53Z"/>
  <path class="cls-1" d="m13.59,2.1c-1.22,0-2.43,0-3.65,0h-.19c0-.23,0-.44,0-.66,0-.8-.64-1.44-1.44-1.44-.57,0-1.14,0-1.71,0-.79,0-1.43.65-1.44,1.44,0,.21,0,.43,0,.66h-.22c-1.22,0-2.44,0-3.67,0-.31,0-.5.2-.51.5,0,.33,0,.66,0,.98,0,.31.2.51.52.51,4.11,0,8.22,0,12.34,0,.32,0,.51-.2.52-.51,0-.31,0-.62,0-.94,0-.37-.18-.55-.56-.55Zm-4.81,0h-2.64c0-.24-.02-.47,0-.7.02-.25.23-.42.49-.43.55,0,1.11,0,1.66,0,.26,0,.46.18.49.43.02.23,0,.46,0,.7Z"/>
</svg>