<?xml version="1.0" encoding="UTF-8"?>
<svg id="Layer_1" data-name="Layer 1" xmlns="http://www.w3.org/2000/svg" viewBox="0 0 16.54 16.53">
  <defs>
    <style>
      .cls-1 {
        fill: #86888a;
      }
    </style>
  </defs>
  <path class="cls-1" d="m5.43,10.42c.07-.07.08-.13.05-.22-.33-.89.26-1.83,1.19-1.94.6-.07,1.17.23,1.45.76.28.52.2,1.18-.19,1.63-.39.45-1.02.62-1.58.4-.12-.04-.17-.01-.25.06-1.75,1.76-3.51,3.51-5.26,5.26-.04.04-.08.08-.14.15.1-.03.16-.04.21-.06,2.89-.8,5.79-1.6,8.68-2.4.18-.05.32-.14.42-.3.94-1.33,1.88-2.66,2.82-3.99.08-.12.07-.18-.03-.28-1.94-1.93-3.88-3.87-5.81-5.81-.03-.03-.07-.07-.11-.1-.04.02-.08.04-.11.07-1.35.96-2.7,1.91-4.06,2.87-.14.1-.22.23-.26.39-.72,2.62-1.45,5.24-2.17,7.86-.09.32-.19.64-.29.96v.06s.08-.05.11-.09c1.77-1.77,3.55-3.55,5.32-5.32Z"/>
  <path class="cls-1" d="m7.77,2.84s-.08.08-.1.11c1.98,1.98,3.94,3.94,5.92,5.92.03-.02.06-.06.1-.1.87-.87,1.74-1.74,2.61-2.61.32-.32.32-.56,0-.88-1.66-1.66-3.32-3.32-4.98-4.97-.11-.11-.25-.2-.37-.3h-.26c-.12.09-.25.17-.35.27-.86.85-1.71,1.71-2.57,2.57Z"/>
  <path class="cls-1" d="m6.83,10.17c.28,0,.5-.21.49-.48,0-.26-.23-.48-.49-.48-.26,0-.48.21-.48.48,0,.27.2.48.47.48Z"/>
</svg>