<?xml version="1.0" encoding="UTF-8"?>
<svg id="Layer_1" data-name="Layer 1" xmlns="http://www.w3.org/2000/svg" viewBox="0 0 14.06 17.55">
  <defs>
    <style>
      .cls-1 {
        fill: #86888a;
      }
    </style>
  </defs>
  <path class="cls-1" d="m6.13,6.87c-.47.41-.6.89-.61,1.48l-.88.81.84.34-.47,2.66,2.11-1.9c.61.09,1.17-.02,1.65-.43.79-.69.77-1.95.1-2.71-.68-.78-1.94-.95-2.74-.26Z"/>
  <path class="cls-1" d="m13.83,5.21c-1.66-1.66-3.32-3.32-4.98-4.98-.09-.09-.21-.16-.31-.23H.38C.1.13,0,.34,0,.66,0,6.07,0,11.49,0,16.91c0,.41.24.64.63.64,4.27,0,8.53,0,12.8,0,.44,0,.62-.18.62-.62,0-3.72,0-7.45,0-11.17,0-.22-.07-.39-.23-.55Zm-4.44,5.4c-.53.46-1.2.71-1.87.73l-2.85,2.12-.62-.36.56-3.94h0c-.35-1.07.03-2.29.87-3.02,1.23-1.07,3.14-.92,4.21.31,1.06,1.22.93,3.11-.29,4.17Z"/>
</svg>