<?xml version="1.0" encoding="UTF-8"?>
<svg id="Layer_1" data-name="Layer 1" xmlns="http://www.w3.org/2000/svg" viewBox="0 0 16.53 10.65">
  <defs>
    <style>
      .cls-1 {
        fill: #86888a;
      }
    </style>
  </defs>
  <path class="cls-1" d="m3.03,6.62c.15.15.34.21.55.12.21-.09.31-.26.3-.49,0-.41,0-.83,0-1.24v-.17h.22c2.62,0,5.24,0,7.86,0,.09,0,.17,0,.26,0,.96.04,1.62.95,1.35,1.87-.18.62-.75,1.03-1.45,1.03-2.24,0-4.49,0-6.73,0-.34,0-.53.19-.53.53,0,.61,0,1.23,0,1.84,0,.35.19.54.54.54,2.27,0,4.54,0,6.81,0,.24,0,.47-.02.71-.06,2.58-.43,4.2-3.04,3.45-5.54-.55-1.84-2.24-3.11-4.17-3.11-2.7,0-5.4,0-8.1,0h-.2c0-.07,0-.12,0-.17,0-.43,0-.85,0-1.28,0-.31-.25-.54-.55-.48-.12.02-.24.1-.33.19-.91.9-1.82,1.81-2.72,2.72-.1.1-.18.23-.28.35v.26c.05.08.1.17.16.23.95.96,1.91,1.91,2.86,2.87Z"/>
</svg>