<?xml version="1.0" encoding="UTF-8"?>
<svg id="Layer_1" data-name="Layer 1" xmlns="http://www.w3.org/2000/svg" viewBox="0 0 10.75 16.56">
  <defs>
    <style>
      .cls-1 {
        fill: #86888a;
      }
    </style>
  </defs>
  <path class="cls-1" d="m10.5,8.8s-.04.03-.06.05c.02-.02.04-.03.06-.05Z"/>
  <path class="cls-1" d="m10.51,7.81c.15.13.24.29.23.5,0,.21-.09.36-.23.48.14-.12.23-.27.23-.48,0-.21-.08-.37-.23-.5Z"/>
  <path class="cls-1" d="m10.39,13.36c.48-.32.48-.83,0-1.15-.5-.34-1.01-.67-1.52-1.01-.1-.07-.16-.06-.25,0-.96.65-1.93,1.28-2.9,1.93-.24.16-.46.16-.7,0-.96-.65-1.92-1.28-2.88-1.92-.1-.07-.17-.08-.28,0-.5.34-1,.67-1.5,1-.48.32-.48.83,0,1.15.9.6,1.81,1.2,2.71,1.8.71.47,1.43.93,2.14,1.4h.32c.09-.05.19-.1.27-.16,1.53-1.01,3.05-2.03,4.58-3.04Z"/>
  <path class="cls-1" d="m.32,3.27c-.43.28-.42.81,0,1.09,1.58,1.05,3.16,2.1,4.74,3.15.21.14.41.15.62,0,1.59-1.06,3.19-2.12,4.78-3.18.39-.26.4-.8,0-1.06-1.57-1.05-3.14-2.09-4.71-3.13-.11-.07-.24-.1-.37-.15h-.01c-.13.06-.27.09-.38.17C3.42,1.2,1.87,2.23.32,3.27Z"/>
  <path class="cls-1" d="m5.36,0s0,0,0,0h.01s0,0,0,0Z"/>
  <path class="cls-1" d="m10.74,8.31c0-.21-.08-.38-.23-.5-.02-.02-.05-.04-.07-.05-.51-.34-1.03-.68-1.54-1.03-.1-.07-.17-.08-.28,0-.96.64-1.92,1.28-2.88,1.92-.28.19-.42.19-.71,0-.97-.64-1.93-1.28-2.9-1.93-.09-.06-.15-.06-.24,0-.5.34-1.01.67-1.52,1.01-.49.32-.48.83,0,1.16,1.56,1.04,3.12,2.07,4.67,3.11.23.15.44.15.67,0,.58-.39,1.17-.78,1.76-1.17.98-.65,1.95-1.3,2.93-1.94.01,0,.03-.02.04-.03.02-.02.04-.03.06-.05,0,0,0,0,.01,0,.14-.12.23-.27.23-.48Z"/>
  <path class="cls-1" d="m10.51,8.79s0,0-.01,0c0,0,0,0,.01,0Z"/>
</svg>