<?xml version="1.0" encoding="UTF-8"?>
<svg id="Layer_1" data-name="Layer 1" xmlns="http://www.w3.org/2000/svg" viewBox="0 0 20.07 20.07">
  <defs>
    <style>
      .cls-1 {
        fill: #ee3124;
      }

      .cls-2 {
        fill: #fff;
      }
    </style>
  </defs>
  <circle class="cls-1" cx="10.04" cy="10.04" r="10.04"/>
  <path class="cls-2" d="m14.42,5.59c-1.64-1.89-4.58-2.12-6.47-.47-1.29,1.12-1.87,3-1.33,4.64h0s-.85,6.05-.85,6.05l.96.55,4.38-3.26c1.04-.02,2.06-.4,2.88-1.11,1.87-1.63,2.07-4.53.44-6.4Zm-1.4,5.22c-.73.64-1.59.81-2.53.66l-3.24,2.91.72-4.09-1.29-.52,1.36-1.24c.02-.92.22-1.66.94-2.28,1.22-1.07,3.17-.8,4.21.39,1.02,1.17,1.06,3.11-.16,4.17Z"/>
</svg>